<?xml version="1.0" encoding="UTF-8" standalone="no"?>
<svg
   xmlns:dc="http://purl.org/dc/elements/1.1/"
   xmlns:cc="http://creativecommons.org/ns#"
   xmlns:rdf="http://www.w3.org/1999/02/22-rdf-syntax-ns#"
   xmlns:svg="http://www.w3.org/2000/svg"
   xmlns="http://www.w3.org/2000/svg"
   xmlns:sodipodi="http://sodipodi.sourceforge.net/DTD/sodipodi-0.dtd"
   xmlns:inkscape="http://www.inkscape.org/namespaces/inkscape"
   width="90pt"
   height="90pt"
   viewBox="0 0 12 12"
   version="1.1"
   id="svg20"
   sodipodi:docname="Unicode 0x03C3.svg"
   inkscape:version="0.92.5 (2060ec1f9f, 2020-04-08)">
  <metadata
     id="metadata26">
    <rdf:RDF>
      <cc:Work
         rdf:about="">
        <dc:format>image/svg+xml</dc:format>
        <dc:type
           rdf:resource="http://purl.org/dc/dcmitype/StillImage" />
        <dc:title />
      </cc:Work>
    </rdf:RDF>
  </metadata>
  <defs
     id="defs24" />
  <sodipodi:namedview
     pagecolor="#ffffff"
     bordercolor="#666666"
     borderopacity="1"
     objecttolerance="10"
     gridtolerance="10"
     guidetolerance="10"
     inkscape:pageopacity="0"
     inkscape:pageshadow="2"
     inkscape:window-width="1920"
     inkscape:window-height="1009"
     id="namedview22"
     showgrid="false"
     inkscape:zoom="20.85965"
     inkscape:cx="-4.565037"
     inkscape:cy="-0.60470911"
     inkscape:window-x="0"
     inkscape:window-y="0"
     inkscape:window-maximized="1"
     inkscape:current-layer="svg20"
     inkscape:snap-object-midpoints="true"
     inkscape:snap-center="true"
     inkscape:snap-smooth-nodes="true"
     showguides="false" />
  <g
     aria-label="σ"
     style="font-style:normal;font-variant:normal;font-weight:normal;font-stretch:normal;font-size:7.99999952px;line-height:0;font-family:Andika;-inkscape-font-specification:Andika;font-variant-ligatures:normal;font-variant-caps:normal;font-variant-numeric:normal;font-feature-settings:normal;text-align:start;writing-mode:lr-tb;text-anchor:start;opacity:1;vector-effect:none;fill:#6495ED;fill-opacity:1;stroke:none;stroke-width:0.15000001;stroke-linecap:square;stroke-linejoin:bevel;stroke-miterlimit:4;stroke-dasharray:none;stroke-dashoffset:0;stroke-opacity:1;paint-order:markers stroke fill"
     id="text818-3">
    <path
       d="m 7.6452637,4.6383629 c -0.1385091,0 -0.3125814,-0.00187 -0.5222168,-0.00562 C 6.9134114,4.6252562 6.696289,4.6196409 6.4716797,4.6158969 6.2508138,4.6084102 6.0486653,4.6027949 5.8652344,4.5990509 5.6855469,4.5915642 5.5545247,4.5878209 5.472168,4.5878209 c -0.3968099,0 -0.6906739,0.1403809 -0.8815918,0.4211426 -0.1871745,0.2770182 -0.2807618,0.6195475 -0.2807618,1.0275878 0,0.3930665 0.063639,0.7730307 0.190918,1.1398926 0.1310221,0.366862 0.3088379,0.6682129 0.5334473,0.9040528 0.2283529,0.2358398 0.4885254,0.3537597 0.7805176,0.3537597 0.2994791,0 0.5315755,-0.080485 0.696289,-0.2414551 C 6.6756998,8.028091 6.7898763,7.8222008 6.8535156,7.5751305 6.9208984,7.3280602 6.9545898,7.0772464 6.9545898,6.8226891 6.9545898,6.470801 6.9059244,6.1432457 6.8085937,5.840023 6.7150065,5.5330569 6.5989583,5.2672691 6.4604492,5.0426598 6.3256836,4.8143069 6.1946615,4.6383629 6.0673828,4.5148277 h -0.00562 c 0.00749,0 0.056152,0.00374 0.1459961,0.01123 0.093587,0.00749 0.1927897,0.018718 0.2976074,0.033691 0.1085612,0.014974 0.1871745,0.037435 0.2358398,0.067383 0.3930664,0.2732747 0.6906738,0.5633952 0.8928223,0.8703613 0.2058919,0.3069662 0.3088379,0.6663412 0.3088379,1.078125 0,0.2283529 -0.054281,0.4885254 -0.1628418,0.7805176 C 7.67521,7.6481283 7.5198567,7.9288902 7.3139648,8.1984215 7.1080729,8.4642092 6.8572591,8.6850751 6.5615234,8.8610191 6.2695312,9.0369632 5.9363606,9.1249352 5.5620117,9.1249352 5.1389974,9.1249352 4.7609049,9.0070153 4.4277344,8.7711754 4.0983073,8.5315921 3.836263,8.2171389 3.6416016,7.827816 3.4506836,7.4347496 3.3552246,7.0117353 3.3552246,6.558773 c 0,-0.3743489 0.076741,-0.7318522 0.2302246,-1.0725097 C 3.7389323,5.1456057 3.9429525,4.8442548 4.1975098,4.5822105 4.4558105,4.3201662 4.738444,4.1142743 5.0454101,3.9645348 5.3561198,3.8110517 5.6668294,3.7343102 5.9775391,3.7343102 h 0.8928222 0.8815918 c 0.1497396,0 0.2620443,-0.00187 0.3369141,-0.00562 0.07487,-0.00749 0.1366374,-0.022461 0.1853027,-0.044922 0.052409,-0.022461 0.116048,-0.061767 0.190918,-0.1179199 L 8.6447754,3.7680016 C 8.4800619,4.0263023 8.347168,4.2172203 8.2460937,4.3407555 8.148763,4.4642906 8.0551757,4.5447756 7.965332,4.5822105 c -0.0861,0.037435 -0.1927897,0.056152 -0.3200683,0.056152 z"
       style="font-style:normal;font-variant:normal;font-weight:normal;font-stretch:normal;font-size:11.5px;line-height:0;font-family:'Gentium Book Plus';-inkscape-font-specification:'Gentium Book Plus';stroke-width:0.15000001"
       id="path5251"
       inkscape:connector-curvature="0"
       sodipodi:nodetypes="scccscsccsccsccccccccscccsccssccscsccccccs" />
  </g>
</svg>
